<svg width="24" height="24" viewBox="0 0 24 24" fill="none" xmlns="http://www.w3.org/2000/svg">
<path d="M19.9783 21.4805C17.8374 21.4805 15.7223 21.0146 13.633 20.0828C11.5437 19.1508 9.63734 17.8255 7.914 16.107C6.19084 14.3885 4.86334 12.483 3.9315 10.3905C2.99967 8.29803 2.53375 6.17978 2.53375 4.03578C2.53375 3.60261 2.67675 3.24161 2.96275 2.95278C3.24892 2.66395 3.60659 2.51953 4.03575 2.51953H8.07175C8.52175 2.51953 8.89492 2.63878 9.19125 2.87728C9.48775 3.11561 9.68092 3.44203 9.77075 3.85653L10.4065 7.05978C10.4775 7.46778 10.4715 7.81528 10.3885 8.10228C10.3057 8.38911 10.141 8.64161 9.8945 8.85978L7.38475 11.1968C7.68042 11.7098 8.02917 12.2161 8.431 12.7158C8.83284 13.2154 9.28992 13.7131 9.80225 14.2088C10.2718 14.6783 10.7428 15.1009 11.2153 15.4765C11.6878 15.8524 12.1747 16.1859 12.676 16.4773L15.125 14.0705C15.3787 13.8264 15.6734 13.6574 16.0093 13.5635C16.3451 13.4697 16.7003 13.4583 17.075 13.5293L20.1435 14.187C20.5747 14.3102 20.9053 14.5087 21.1353 14.7825C21.3654 15.0565 21.4805 15.4008 21.4805 15.8153V19.9643C21.4805 20.3974 21.3358 20.7584 21.0463 21.0473C20.7568 21.3361 20.4008 21.4805 19.9783 21.4805ZM6.10975 8.77403L7.74575 7.25103L7.349 5.16953H5.22275C5.28725 5.78703 5.38725 6.39586 5.52275 6.99603C5.65825 7.5962 5.85392 8.18886 6.10975 8.77403ZM15.1163 17.7945C15.7098 18.0497 16.3181 18.2559 16.9413 18.413C17.5644 18.5704 18.1942 18.6834 18.8305 18.7523V16.6228L16.763 16.176L15.1163 17.7945Z" fill="#2A2A2A"/>
</svg>
